<svg viewBox="0 0 144 36" fill="none" xmlns="http://www.w3.org/2000/svg"><path d="M8.024 8.33H22.2v3.748H9.078c-.861 0-1.559.043-2.093.129-.449.072-.766.165-.95.278l-.058.029c-.689.377-1.2.864-1.536 1.462-.342.611-.513 1.366-.513 2.263 0 .826.183 1.54.55 2.141.36.593.914 1.106 1.66 1.539.29.1.555.175.795.226.232.05.44.075.621.075h8.026c.55 0 1.152.134 1.806.403.581.24 1.206.587 1.876 1.043l.135.106a8.212 8.212 0 012.051 2.83c.46 1.06.69 2.216.69 3.467 0 1.515-.331 2.864-.997 4.043-.666 1.18-1.647 2.156-2.946 2.927l-.096.053a9.571 9.571 0 01-1.589.6 5.772 5.772 0 01-1.515.225H0v-3.693h13.002c.909 0 1.628-.034 2.159-.102.435-.056.723-.124.862-.204l.077-.039c.75-.363 1.306-.86 1.667-1.488.376-.653.565-1.486.565-2.498 0-.271-.055-.584-.163-.937a8.786 8.786 0 00-.58-1.376 3.15 3.15 0 00-.79-.82 4.782 4.782 0 00-1.29-.65l-.882-.142H6.855c-.858 0-1.703-.21-2.536-.633-.776-.394-1.535-.972-2.273-1.737l-.091-.105A9.428 9.428 0 01.589 19.06a7.415 7.415 0 01-.474-2.592v-.29c0-1.3.269-2.497.804-3.592.53-1.082 1.315-2.04 2.356-2.873l.135-.096A8.874 8.874 0 018.024 8.33zm100.735.258a12.514 12.514 0 016.288 1.683l.077.048c.935.63 1.724 1.305 2.369 2.028h.005a8.632 8.632 0 011.495 2.308c.216.393.406.874.57 1.445.156.542.297 1.192.424 1.95l.014.139.06 1.114.005.063v5.797c0 1.525-.265 2.938-.795 4.239-.531 1.304-1.326 2.485-2.384 3.543l-.029.029a10.925 10.925 0 01-3.652 2.27c-1.346.504-2.808.756-4.387.756h-.53c-.998 0-2.03-.185-3.095-.556-1.021-.355-2.066-.882-3.136-1.58l-.106-.072c-1.378-1.115-2.415-2.453-3.112-4.014-.689-1.54-1.033-3.275-1.033-5.2V20.07c0-1.161.134-2.277.403-3.345a12.35 12.35 0 011.22-3.059l.043-.067a10.594 10.594 0 012.492-2.7 11.28 11.28 0 013.305-1.719l.049-.02c1.274-.366 2.418-.555 3.43-.567l.01-.005zm-7.085 11.422v4.448c0 1.896.426 3.443 1.277 4.642.836 1.177 2.107 2.062 3.814 2.655.54.096.955.162 1.249.2.307.038.556.057.745.057h.47a6.86 6.86 0 002.049-.321 9.564 9.564 0 002.144-.995c.365-.258.69-.533.973-.824a4.91 4.91 0 00.692-.892l.091-.13c.238-.298.45-.713.636-1.242.201-.57.367-1.253.499-2.05v-5.723h.005a7.233 7.233 0 00-.75-3.153c-.478-.956-1.196-1.841-2.155-2.653-.736-.457-1.415-.797-2.036-1.02-.59-.212-1.131-.318-1.624-.318l-.187-.02-.636-.1a7.798 7.798 0 00-1.268.13 14.02 14.02 0 00-1.583.382 6.77 6.77 0 00-2.211 1.344 7.025 7.025 0 00-1.543 2.103 9.962 9.962 0 00-.484 1.697 9.454 9.454 0 00-.167 1.783zm9.642-12.41a1.435 1.435 0 01-1.04-.368 1.444 1.444 0 01.884-2.521 11.028 11.028 0 012.651.151c.849.157 1.648.42 2.397.788l.02.009.036.019a9.193 9.193 0 012.047 1.404 11.013 11.013 0 011.722 1.995 1.444 1.444 0 01-.379 2.011 1.443 1.443 0 01-2.011-.38 8.231 8.231 0 00-1.256-1.464 6.274 6.274 0 00-1.426-.983l-.016-.008-.014-.008a6.293 6.293 0 00-1.666-.542 8.215 8.215 0 00-1.946-.103h-.003zm.421-4.68a1.447 1.447 0 01-1.521-1.368c-.022-.396.12-.765.368-1.041.247-.276.599-.458.997-.48a16.072 16.072 0 013.855.218 13.23 13.23 0 013.461 1.137 13.255 13.255 0 013.021 2.05c.92.827 1.763 1.802 2.528 2.925.225.33.295.72.226 1.083a1.443 1.443 0 01-1.689 1.154 1.44 1.44 0 01-.927-.606A13.299 13.299 0 00120 5.6a10.348 10.348 0 00-2.372-1.62 10.356 10.356 0 00-2.734-.89 13.286 13.286 0 00-3.154-.17h-.003zm14.468 14.415c.425-.312.793-.568 1.104-.767.35-.224.656-.378.919-.462a9.583 9.583 0 012.325-.759 14.813 14.813 0 012.857-.257l.091.005c1.036.08 2.033.284 2.991.61a12.16 12.16 0 012.739 1.341l.058.039a9.763 9.763 0 012.344 2.446c.63.94 1.114 2.003 1.452 3.19l.004.02c.098.369.17.829.215 1.378.042.517.063 1.119.063 1.803V36h-3.812V25.748c0-1.606-.353-2.933-1.061-3.982-.706-1.05-1.787-1.858-3.243-2.425a5.355 5.355 0 00-.886-.207 18.562 18.562 0 00-1.518-.176c-.482.003-.997.07-1.545.2a11.18 11.18 0 00-1.766.589c-.37.226-.68.43-.931.612a3.456 3.456 0 00-.443.358l-.063.068c-.381.359-.71.784-.987 1.274a7.902 7.902 0 00-.699 1.717 14.45 14.45 0 00-.154 1.323 23.3 23.3 0 00-.054 1.648V36h-3.807V15.03h3.807v2.305zm-93.73-2.328c.518 0 1.096.076 1.733.23.454.108.93.255 1.43.442.506-.19.966-.338 1.382-.443.602-.153 1.137-.229 1.607-.229h.29a7.9 7.9 0 012.976.573c.93.373 1.812.93 2.644 1.674l.092.087c.686.753 1.203 1.559 1.55 2.415.354.873.53 1.788.53 2.745v13.416h-3.752V22.621c0-.429-.082-.85-.246-1.262a5.282 5.282 0 00-.79-1.32 4.304 4.304 0 00-1.426-.95c-.55-.223-1.174-.334-1.868-.334a2.9 2.9 0 00-.64.095c-.11.026-.23.058-.357.095v16.972h-3.808V19.015a6.15 6.15 0 00-.489-.133 5.218 5.218 0 00-1.086-.127 9.14 9.14 0 00-1.37.263c-.32.093-.58.2-.78.32-.647.485-1.122 1.014-1.423 1.587a3.743 3.743 0 00-.42 1.847l.005.024v13.121h-3.808V22.971c0-1.372.279-2.611.837-3.718.56-1.109 1.39-2.058 2.486-2.845l.02-.01c.67-.465 1.4-.814 2.19-1.045a8.807 8.807 0 012.49-.346zm26.76.055c2.043 0 3.843.392 5.397 1.175a9.58 9.58 0 011.627 1.035v-2.265h3.753v20.91H66.26v-2.198l-.129.096c-.956.704-2.072 1.267-3.348 1.69l-.058.014c-.47.13-.894.227-1.27.291a6.677 6.677 0 01-1.112.107h-.523c-1.265 0-2.433-.153-3.503-.458a9.452 9.452 0 01-2.927-1.4l-.001.002a9.379 9.379 0 01-2.278-2.193 10.448 10.448 0 01-1.477-2.885l-.015-.053a16.272 16.272 0 01-.426-1.838c-.1-.605-.15-1.159-.15-1.662 0-.805.11-1.643.33-2.515a14.84 14.84 0 01.959-2.628l.053-.106a10.288 10.288 0 012.578-2.946c1.02-.787 2.196-1.376 3.526-1.765l.106-.029a33.15 33.15 0 011.546-.275 7.948 7.948 0 011.093-.104zM52.97 25.255v.47c0 1.237.269 2.309.806 3.217.533.898 1.341 1.663 2.426 2.293a9.164 9.164 0 001.667.617 5.986 5.986 0 001.48.198h.355a6.533 6.533 0 002.775-.589c.842-.389 1.621-.971 2.337-1.745a7.78 7.78 0 001.036-2.05 7.187 7.187 0 00.347-2.236c0-1.05-.199-1.998-.596-2.842-.395-.837-.991-1.594-1.791-2.27a8.096 8.096 0 00-2.022-1.04 6.485 6.485 0 00-2.086-.343h-.355a6.29 6.29 0 00-2.337.449c-.76.302-1.513.76-2.262 1.377-.593.655-1.037 1.35-1.331 2.083a6.41 6.41 0 00-.45 2.41zm23.126-9.122a7.335 7.335 0 013.861-1.07h1.353v3.752h-1.292c-.744 0-1.385.142-1.924.426-.539.284-1 .717-1.384 1.3l-.034.053c-.156.211-.278.519-.368.922-.105.475-.157 1.078-.157 1.81v12.591h-3.808v-20.91h3.753v1.126zm11.353-1.186h8.026v3.808h-8.026v6.325h-.004c.01.432.073.905.19 1.417.126.543.306 1.11.542 1.704l.01.014c.107.282.328.628.66 1.039.365.448.852.957 1.463 1.525a9.81 9.81 0 002.145.989 7.12 7.12 0 002.138.336H96v3.813h-1.287c-1.604 0-3.1-.292-4.49-.877-1.384-.582-2.64-1.447-3.767-2.597l-.058-.063a11.085 11.085 0 01-2.07-3.607c-.458-1.32-.687-2.746-.687-4.278V8.27h3.808v6.677z" fill="#fff"/></svg>